<svg xmlns="http://www.w3.org/2000/svg" viewBox="0 0 740 360" width="740" height="360" font-family="-apple-system,Segoe UI,Helvetica,Arial,sans-serif">
<style>.ax{stroke:#9aa0a6;stroke-width:1}.gr{stroke:#9aa0a6;stroke-opacity:.22;stroke-width:1}.tk{fill:#9aa0a6;font-size:12px}.lb{fill:#9aa0a6;font-size:12.5px}.vl{font-size:11.5px;font-weight:600}.lg{font-size:12.5px;fill:#9aa0a6}</style>
<line class="gr" x1="78" y1="290.0" x2="704" y2="290.0"/>
<text class="tk" x="68" y="294.0" text-anchor="end">0.0</text>
<line class="gr" x1="78" y1="243.8" x2="704" y2="243.8"/>
<text class="tk" x="68" y="247.8" text-anchor="end">0.1</text>
<line class="gr" x1="78" y1="197.6" x2="704" y2="197.6"/>
<text class="tk" x="68" y="201.6" text-anchor="end">0.2</text>
<line class="gr" x1="78" y1="151.5" x2="704" y2="151.5"/>
<text class="tk" x="68" y="155.5" text-anchor="end">0.3</text>
<line class="gr" x1="78" y1="105.3" x2="704" y2="105.3"/>
<text class="tk" x="68" y="109.3" text-anchor="end">0.4</text>
<line class="gr" x1="78" y1="59.1" x2="704" y2="59.1"/>
<text class="tk" x="68" y="63.1" text-anchor="end">0.5</text>
<line class="ax" x1="78" y1="290" x2="704" y2="290"/>
<text class="tk" x="78" y="312" text-anchor="middle">32K</text>
<text class="tk" x="384" y="312" text-anchor="middle">64K</text>
<text class="tk" x="690" y="312" text-anchor="middle">128K</text>
<text class="lb" x="384" y="336" text-anchor="middle">Context budget</text>
<text class="lb" transform="rotate(-90 20 163)" x="20" y="163" text-anchor="middle">Pass@1</text>
<path d="M78,280.8 L384,201.3 L690,66.0" fill="none" stroke="#2A78D6" stroke-width="2.4" stroke-linejoin="round"/>
<circle cx="78" cy="280.8" r="4.6" fill="#2A78D6" stroke="#fff" stroke-width="1.5"/>
<circle cx="384" cy="201.3" r="4.6" fill="#2A78D6" stroke="#fff" stroke-width="1.5"/>
<circle cx="690" cy="66.0" r="4.6" fill="#2A78D6" stroke="#fff" stroke-width="1.5"/>
<path d="M78,121.9 L384,121.9 L690,108.0" fill="none" stroke="#EB6834" stroke-width="2.4" stroke-linejoin="round"/>
<rect x="73.8" y="117.7" width="8.4" height="8.4" fill="#EB6834" stroke="#fff" stroke-width="1.5"/>
<rect x="379.8" y="117.7" width="8.4" height="8.4" fill="#EB6834" stroke="#fff" stroke-width="1.5"/>
<rect x="685.8" y="103.8" width="8.4" height="8.4" fill="#EB6834" stroke="#fff" stroke-width="1.5"/>
<path d="M78,163.9 L384,112.7 L690,89.6" fill="none" stroke="#1BAF7A" stroke-width="2.4" stroke-linejoin="round"/>
<polygon points="78,158.7 73.2,167.5 82.8,167.5" fill="#1BAF7A" stroke="#fff" stroke-width="1.5"/>
<polygon points="384,107.5 379.2,116.3 388.8,116.3" fill="#1BAF7A" stroke="#fff" stroke-width="1.5"/>
<polygon points="690,84.4 685.2,93.2 694.8,93.2" fill="#1BAF7A" stroke="#fff" stroke-width="1.5"/>
<text class="vl" x="78" y="300.8" fill="#2A78D6" text-anchor="middle">0.020</text>
<text class="vl" x="700" y="70.0" fill="#2A78D6">0.485</text>
<text class="vl" x="78" y="110.9" fill="#EB6834" text-anchor="middle">0.364</text>
<circle cx="92" cy="42.0" r="4.6" fill="#2A78D6" stroke="#fff" stroke-width="1.5"/>
<text class="lg" x="104" y="46">A1 no memory</text>
<rect x="87.8" y="56.8" width="8.4" height="8.4" fill="#EB6834" stroke="#fff" stroke-width="1.5"/>
<text class="lg" x="104" y="65">A2 summarize</text>
<polygon points="92,74.8 87.2,83.6 96.8,83.6" fill="#1BAF7A" stroke="#fff" stroke-width="1.5"/>
<text class="lg" x="104" y="84">A3 ACM base</text>
</svg>